<mxfile host="app.diagrams.net" modified="2023-04-08T12:57:37.926Z" agent="Mozilla/5.0 (Macintosh; Intel Mac OS X 10_15_7) AppleWebKit/605.1.15 (KHTML, like Gecko) Version/16.3 Safari/605.1.15" etag="VKBorj7r_HEwJdFilRyu" version="21.1.5" type="google">
  <diagram name="Page-1" id="g1Ay38FDDImJr3n_EXKH">
    <mxGraphModel grid="1" page="1" gridSize="10" guides="1" tooltips="1" connect="1" arrows="1" fold="1" pageScale="1" pageWidth="827" pageHeight="1169" math="0" shadow="0">
      <root>
        <mxCell id="0" />
        <mxCell id="1" parent="0" />
        <mxCell id="MtOdDHhWCRG9IOXjkiR9-1" value="LocationTracker" style="swimlane;fontStyle=1;align=center;verticalAlign=top;childLayout=stackLayout;horizontal=1;startSize=26;horizontalStack=0;resizeParent=1;resizeParentMax=0;resizeLast=0;collapsible=1;marginBottom=0;whiteSpace=wrap;html=1;" vertex="1" parent="1">
          <mxGeometry x="327.5" y="59" width="250" height="160" as="geometry" />
        </mxCell>
        <mxCell id="MtOdDHhWCRG9IOXjkiR9-2" value="- var trackingState: TrackingState" style="text;strokeColor=none;fillColor=none;align=left;verticalAlign=top;spacingLeft=4;spacingRight=4;overflow=hidden;rotatable=0;points=[[0,0.5],[1,0.5]];portConstraint=eastwest;whiteSpace=wrap;html=1;" vertex="1" parent="MtOdDHhWCRG9IOXjkiR9-1">
          <mxGeometry y="26" width="250" height="26" as="geometry" />
        </mxCell>
        <mxCell id="MtOdDHhWCRG9IOXjkiR9-3" value="" style="line;strokeWidth=1;fillColor=none;align=left;verticalAlign=middle;spacingTop=-1;spacingLeft=3;spacingRight=3;rotatable=0;labelPosition=right;points=[];portConstraint=eastwest;strokeColor=inherit;" vertex="1" parent="MtOdDHhWCRG9IOXjkiR9-1">
          <mxGeometry y="52" width="250" height="8" as="geometry" />
        </mxCell>
        <mxCell id="MtOdDHhWCRG9IOXjkiR9-4" value="+ func startTracking()&lt;br&gt;&lt;div&gt;+ func stopTracking()&lt;/div&gt;&lt;div&gt;+ func pauseTracking(for time: TimeInterval)&lt;/div&gt;&lt;div&gt;+ func makeCheckIn()&lt;/div&gt;&lt;div&gt;+ func findMyChildren()&lt;/div&gt;&lt;div&gt;+ func update(state: TrackingState)&lt;/div&gt;" style="text;strokeColor=none;fillColor=none;align=left;verticalAlign=top;spacingLeft=4;spacingRight=4;overflow=hidden;rotatable=0;points=[[0,0.5],[1,0.5]];portConstraint=eastwest;whiteSpace=wrap;html=1;" vertex="1" parent="MtOdDHhWCRG9IOXjkiR9-1">
          <mxGeometry y="60" width="250" height="100" as="geometry" />
        </mxCell>
        <mxCell id="MtOdDHhWCRG9IOXjkiR9-5" value="&lt;span style=&quot;font-weight: normal;&quot;&gt;«Protocol»&lt;/span&gt;&lt;br style=&quot;border-color: var(--border-color); font-weight: 400;&quot;&gt;TrackingState" style="swimlane;fontStyle=1;align=center;verticalAlign=top;childLayout=stackLayout;horizontal=1;startSize=40;horizontalStack=0;resizeParent=1;resizeParentMax=0;resizeLast=0;collapsible=1;marginBottom=0;whiteSpace=wrap;html=1;" vertex="1" parent="1">
          <mxGeometry x="717.5" y="74" width="250" height="130" as="geometry" />
        </mxCell>
        <mxCell id="MtOdDHhWCRG9IOXjkiR9-8" value="+ func startTracking()&lt;br&gt;&lt;div&gt;+ func stopTracking()&lt;/div&gt;&lt;div&gt;+ func pauseTracking(for time: TimeInterval)&lt;/div&gt;&lt;div&gt;+ func makeCheckIn()&lt;/div&gt;&lt;div&gt;+ func findMyChildren()&lt;/div&gt;" style="text;strokeColor=none;fillColor=none;align=left;verticalAlign=top;spacingLeft=4;spacingRight=4;overflow=hidden;rotatable=0;points=[[0,0.5],[1,0.5]];portConstraint=eastwest;whiteSpace=wrap;html=1;" vertex="1" parent="MtOdDHhWCRG9IOXjkiR9-5">
          <mxGeometry y="40" width="250" height="90" as="geometry" />
        </mxCell>
        <mxCell id="MtOdDHhWCRG9IOXjkiR9-14" style="edgeStyle=orthogonalEdgeStyle;rounded=0;orthogonalLoop=1;jettySize=auto;html=1;exitX=0.5;exitY=0;exitDx=0;exitDy=0;entryX=0.504;entryY=1.011;entryDx=0;entryDy=0;entryPerimeter=0;endArrow=block;endFill=0;endSize=15;dashed=1;" edge="1" parent="1" source="MtOdDHhWCRG9IOXjkiR9-10" target="MtOdDHhWCRG9IOXjkiR9-8">
          <mxGeometry relative="1" as="geometry" />
        </mxCell>
        <mxCell id="MtOdDHhWCRG9IOXjkiR9-10" value="EnabledTrackingState" style="swimlane;fontStyle=1;align=center;verticalAlign=top;childLayout=stackLayout;horizontal=1;startSize=26;horizontalStack=0;resizeParent=1;resizeParentMax=0;resizeLast=0;collapsible=1;marginBottom=0;whiteSpace=wrap;html=1;" vertex="1" parent="1">
          <mxGeometry x="467.5" y="309" width="250" height="150" as="geometry" />
        </mxCell>
        <mxCell id="MtOdDHhWCRG9IOXjkiR9-11" value="- var trackingState: TrackingState" style="text;strokeColor=none;fillColor=none;align=left;verticalAlign=top;spacingLeft=4;spacingRight=4;overflow=hidden;rotatable=0;points=[[0,0.5],[1,0.5]];portConstraint=eastwest;whiteSpace=wrap;html=1;" vertex="1" parent="MtOdDHhWCRG9IOXjkiR9-10">
          <mxGeometry y="26" width="250" height="26" as="geometry" />
        </mxCell>
        <mxCell id="MtOdDHhWCRG9IOXjkiR9-12" value="" style="line;strokeWidth=1;fillColor=none;align=left;verticalAlign=middle;spacingTop=-1;spacingLeft=3;spacingRight=3;rotatable=0;labelPosition=right;points=[];portConstraint=eastwest;strokeColor=inherit;" vertex="1" parent="MtOdDHhWCRG9IOXjkiR9-10">
          <mxGeometry y="52" width="250" height="8" as="geometry" />
        </mxCell>
        <mxCell id="MtOdDHhWCRG9IOXjkiR9-13" value="+ func startTracking()&lt;br&gt;&lt;div&gt;+ func stopTracking()&lt;/div&gt;&lt;div&gt;+ func pauseTracking(for time: TimeInterval)&lt;/div&gt;&lt;div&gt;+ func makeCheckIn()&lt;/div&gt;&lt;div&gt;+ func findMyChildren()&lt;/div&gt;" style="text;strokeColor=none;fillColor=none;align=left;verticalAlign=top;spacingLeft=4;spacingRight=4;overflow=hidden;rotatable=0;points=[[0,0.5],[1,0.5]];portConstraint=eastwest;whiteSpace=wrap;html=1;" vertex="1" parent="MtOdDHhWCRG9IOXjkiR9-10">
          <mxGeometry y="60" width="250" height="90" as="geometry" />
        </mxCell>
        <mxCell id="MtOdDHhWCRG9IOXjkiR9-15" style="edgeStyle=orthogonalEdgeStyle;rounded=0;orthogonalLoop=1;jettySize=auto;html=1;exitX=1;exitY=0.5;exitDx=0;exitDy=0;entryX=0.008;entryY=0.185;entryDx=0;entryDy=0;entryPerimeter=0;startArrow=diamondThin;startFill=0;startSize=15;endSize=15;endArrow=openThin;endFill=0;" edge="1" parent="1" source="MtOdDHhWCRG9IOXjkiR9-2" target="MtOdDHhWCRG9IOXjkiR9-5">
          <mxGeometry relative="1" as="geometry" />
        </mxCell>
        <mxCell id="MtOdDHhWCRG9IOXjkiR9-20" style="edgeStyle=orthogonalEdgeStyle;rounded=0;orthogonalLoop=1;jettySize=auto;html=1;exitX=0.5;exitY=0;exitDx=0;exitDy=0;entryX=0.504;entryY=1.011;entryDx=0;entryDy=0;entryPerimeter=0;endSize=15;endArrow=block;endFill=0;dashed=1;" edge="1" parent="1" source="MtOdDHhWCRG9IOXjkiR9-16" target="MtOdDHhWCRG9IOXjkiR9-8">
          <mxGeometry relative="1" as="geometry">
            <mxPoint x="887.5" y="319" as="targetPoint" />
          </mxGeometry>
        </mxCell>
        <mxCell id="MtOdDHhWCRG9IOXjkiR9-16" value="DisabledTrackingState" style="swimlane;fontStyle=1;align=center;verticalAlign=top;childLayout=stackLayout;horizontal=1;startSize=26;horizontalStack=0;resizeParent=1;resizeParentMax=0;resizeLast=0;collapsible=1;marginBottom=0;whiteSpace=wrap;html=1;" vertex="1" parent="1">
          <mxGeometry x="934.5" y="309" width="250" height="150" as="geometry" />
        </mxCell>
        <mxCell id="MtOdDHhWCRG9IOXjkiR9-17" value="- var trackingState: TrackingState" style="text;strokeColor=none;fillColor=none;align=left;verticalAlign=top;spacingLeft=4;spacingRight=4;overflow=hidden;rotatable=0;points=[[0,0.5],[1,0.5]];portConstraint=eastwest;whiteSpace=wrap;html=1;" vertex="1" parent="MtOdDHhWCRG9IOXjkiR9-16">
          <mxGeometry y="26" width="250" height="26" as="geometry" />
        </mxCell>
        <mxCell id="MtOdDHhWCRG9IOXjkiR9-18" value="" style="line;strokeWidth=1;fillColor=none;align=left;verticalAlign=middle;spacingTop=-1;spacingLeft=3;spacingRight=3;rotatable=0;labelPosition=right;points=[];portConstraint=eastwest;strokeColor=inherit;" vertex="1" parent="MtOdDHhWCRG9IOXjkiR9-16">
          <mxGeometry y="52" width="250" height="8" as="geometry" />
        </mxCell>
        <mxCell id="MtOdDHhWCRG9IOXjkiR9-19" value="+ func startTracking()&lt;br&gt;&lt;div&gt;+ func stopTracking()&lt;/div&gt;&lt;div&gt;+ func pauseTracking(for time: TimeInterval)&lt;/div&gt;&lt;div&gt;+ func makeCheckIn()&lt;/div&gt;&lt;div&gt;+ func findMyChildren()&lt;/div&gt;" style="text;strokeColor=none;fillColor=none;align=left;verticalAlign=top;spacingLeft=4;spacingRight=4;overflow=hidden;rotatable=0;points=[[0,0.5],[1,0.5]];portConstraint=eastwest;whiteSpace=wrap;html=1;" vertex="1" parent="MtOdDHhWCRG9IOXjkiR9-16">
          <mxGeometry y="60" width="250" height="90" as="geometry" />
        </mxCell>
        <mxCell id="MtOdDHhWCRG9IOXjkiR9-22" style="edgeStyle=orthogonalEdgeStyle;rounded=0;orthogonalLoop=1;jettySize=auto;html=1;exitX=1;exitY=0.5;exitDx=0;exitDy=0;entryX=-0.004;entryY=0.1;entryDx=0;entryDy=0;entryPerimeter=0;endArrow=openThin;endFill=0;endSize=15;" edge="1" parent="1" source="MtOdDHhWCRG9IOXjkiR9-21" target="MtOdDHhWCRG9IOXjkiR9-1">
          <mxGeometry relative="1" as="geometry" />
        </mxCell>
        <mxCell id="MtOdDHhWCRG9IOXjkiR9-21" value="Client" style="html=1;whiteSpace=wrap;" vertex="1" parent="1">
          <mxGeometry x="75.5" y="50" width="110" height="50" as="geometry" />
        </mxCell>
        <mxCell id="MtOdDHhWCRG9IOXjkiR9-23" value="" style="ellipse;html=1;shape=startState;fillColor=#000000;strokeColor=#ff0000;" vertex="1" parent="1">
          <mxGeometry x="615" y="560" width="30" height="30" as="geometry" />
        </mxCell>
        <mxCell id="MtOdDHhWCRG9IOXjkiR9-24" value="" style="edgeStyle=orthogonalEdgeStyle;html=1;verticalAlign=bottom;endArrow=open;endSize=8;strokeColor=#ff0000;rounded=0;entryX=0.5;entryY=0;entryDx=0;entryDy=0;" edge="1" parent="1" source="MtOdDHhWCRG9IOXjkiR9-23" target="MtOdDHhWCRG9IOXjkiR9-25">
          <mxGeometry relative="1" as="geometry">
            <mxPoint x="630" y="650" as="targetPoint" />
          </mxGeometry>
        </mxCell>
        <mxCell id="MtOdDHhWCRG9IOXjkiR9-25" value="EnabledTrackingState" style="rounded=1;whiteSpace=wrap;html=1;arcSize=40;fontColor=#000000;fillColor=#ffffc0;strokeColor=#ff0000;" vertex="1" parent="1">
          <mxGeometry x="562.5" y="660" width="135" height="40" as="geometry" />
        </mxCell>
        <mxCell id="MtOdDHhWCRG9IOXjkiR9-27" value="DisabledTrackingState" style="rounded=1;whiteSpace=wrap;html=1;arcSize=40;fontColor=#000000;fillColor=#ffffc0;strokeColor=#ff0000;" vertex="1" parent="1">
          <mxGeometry x="562.5" y="760" width="135" height="40" as="geometry" />
        </mxCell>
        <mxCell id="MtOdDHhWCRG9IOXjkiR9-28" value="" style="edgeStyle=orthogonalEdgeStyle;html=1;verticalAlign=bottom;endArrow=open;endSize=8;strokeColor=#ff0000;rounded=0;entryX=0.5;entryY=0;entryDx=0;entryDy=0;" edge="1" parent="1" source="MtOdDHhWCRG9IOXjkiR9-27" target="MtOdDHhWCRG9IOXjkiR9-29">
          <mxGeometry relative="1" as="geometry">
            <mxPoint x="630" y="860" as="targetPoint" />
          </mxGeometry>
        </mxCell>
        <mxCell id="MtOdDHhWCRG9IOXjkiR9-29" value="" style="ellipse;html=1;shape=endState;fillColor=#000000;strokeColor=#ff0000;" vertex="1" parent="1">
          <mxGeometry x="615" y="860" width="30" height="30" as="geometry" />
        </mxCell>
        <mxCell id="MtOdDHhWCRG9IOXjkiR9-30" value="pause&lt;br&gt;stop" style="edgeStyle=orthogonalEdgeStyle;html=1;verticalAlign=bottom;endArrow=open;endSize=8;strokeColor=#ff0000;rounded=0;entryX=0.25;entryY=0;entryDx=0;entryDy=0;exitX=0.25;exitY=1;exitDx=0;exitDy=0;" edge="1" parent="1" source="MtOdDHhWCRG9IOXjkiR9-25" target="MtOdDHhWCRG9IOXjkiR9-27">
          <mxGeometry x="0.3333" y="29" relative="1" as="geometry">
            <mxPoint x="573" y="770" as="targetPoint" />
            <mxPoint x="573" y="710" as="sourcePoint" />
            <mxPoint as="offset" />
          </mxGeometry>
        </mxCell>
        <mxCell id="MtOdDHhWCRG9IOXjkiR9-32" value="&lt;div&gt;startTracking&lt;br&gt;&lt;/div&gt;&lt;div&gt;pause&lt;/div&gt;&lt;div&gt;makeCheckIn&lt;br&gt;&lt;/div&gt;&lt;div&gt;findMyChildren&lt;/div&gt;" style="edgeStyle=orthogonalEdgeStyle;html=1;verticalAlign=bottom;endArrow=open;endSize=8;strokeColor=#ff0000;rounded=0;entryX=0.75;entryY=1;entryDx=0;entryDy=0;exitX=0.75;exitY=0;exitDx=0;exitDy=0;" edge="1" parent="1" source="MtOdDHhWCRG9IOXjkiR9-27" target="MtOdDHhWCRG9IOXjkiR9-25">
          <mxGeometry x="-1" y="-51" relative="1" as="geometry">
            <mxPoint x="640" y="710" as="targetPoint" />
            <mxPoint x="640" y="770" as="sourcePoint" />
            <mxPoint as="offset" />
          </mxGeometry>
        </mxCell>
        <mxCell id="MtOdDHhWCRG9IOXjkiR9-33" value="Class diagram" style="text;html=1;strokeColor=none;fillColor=none;align=center;verticalAlign=middle;whiteSpace=wrap;rounded=0;fontSize=30;fontColor=#3399FF;" vertex="1" parent="1">
          <mxGeometry x="510" y="10" width="240" height="30" as="geometry" />
        </mxCell>
        <mxCell id="MtOdDHhWCRG9IOXjkiR9-34" value="State Machine Diagram" style="text;html=1;strokeColor=none;fillColor=none;align=center;verticalAlign=middle;whiteSpace=wrap;rounded=0;fontSize=30;fontColor=#3399FF;" vertex="1" parent="1">
          <mxGeometry x="460" y="480" width="340" height="30" as="geometry" />
        </mxCell>
      </root>
    </mxGraphModel>
  </diagram>
</mxfile>
